# xmcd
#
# Track frame offsets:
#	150
#	13797
#	25545
#	39175
#	53312
#	62850
#	72950
#	83302
#	97502
#	114100
#	134290
#	151070
#	166995
#
# Disc length: 2550 seconds
#
# Revision: 0
# Processed by: cddbd v1.5.2PL0 Copyright (c) Steve Scherf et al.
# Submitted via: audiograbber 1.82.02
#
DISCID=7f09f40d
DTITLE=Various Artist - Blues Master Course [CD2]
DYEAR=1995
DGENRE=Blues
TTITLE0=Charles Brown - In The Clay
TTITLE1=Ray Charles - How Long, How Long Blues
TTITLE2=Jimmy Rushing - Get Some More You Foll
TTITLE3=Jimmy Witherspoon - I Done Found Out
TTITLE4=Lowell Fulson - Everyday I Have The Blues
TTITLE5=B.B. King - Tickle Britches
TTITLE6=Willie Mabon - Too Hot To Handle
TTITLE7=T-Bone Walker - Will My Girl Be Home Tonight
TTITLE8=The Carter Brothers - Five Long Years
TTITLE9=Jimmy Reed - Big Legged Woman
TTITLE10=Big Joe Turner - I've Been Up On The Mountain
TTITLE11=Buster Benton - Spider In My Stew
TTITLE12=Bobby Rush - She's A Good'un
EXTD=
EXTT0=
EXTT1=
EXTT2=
EXTT3=
EXTT4=
EXTT5=
EXTT6=
EXTT7=
EXTT8=
EXTT9=
EXTT10=
EXTT11=
EXTT12=
PLAYORDER=
